# xmcd CD database file
# Copyright (C) 1993-2000  Ti Kan
#
# Track frame offsets:
#	150
#	20297
#	37125
#	54385
#	71374
#	87421
#	98389
#	116334
#	126597
#	138377
#	154965
#	172197
#
# Disc length: 2576 seconds
#
# Revision: 2
# Processed by: cddbd v1.5.1PL0 Copyright (c) Steve Scherf et al.
# Submitted via: xmcd 2.6 PL0
#
DISCID=a10a0e0c
DTITLE=Dollar Store - Dollar Store
DYEAR=1900
DGENRE=
TTITLE0=New Country
TTITLE1=Around The Bend
TTITLE2=Believe
TTITLE3=Beyond Our Means
TTITLE4=North Central Plain
TTITLE5=Button Up
TTITLE6=Explain Away
TTITLE7=Enemy
TTITLE8=Exit #9
TTITLE9=Working Line
TTITLE10=Amazing Disgrace
TTITLE11=Little Autocrat
EXTD=Dollar Store are Dean Schlabowske (Wreck) and Alan Doughty (Jesu
EXTD=s Jones) of the Waco brothers, rounding out the trio is Joe Cama
EXTD=rillo, sometime Waco Drummer when Steve Goulding is otherwise en
EXTD=gaged.\n\nA stripped down Waco's sound, rounded out on tour by Tex
EXTD=Schmidt of German Rockabilly legends The Roughnecks.\n\n
EXTT0=
EXTT1=
EXTT2=
EXTT3=
EXTT4=
EXTT5=
EXTT6=
EXTT7=
EXTT8=
EXTT9=
EXTT10=
EXTT11=
PLAYORDER=
